<svg width="73" height="45" viewBox="0 0 73 45" fill="none" xmlns="http://www.w3.org/2000/svg">
<path d="M3.58365 0H29.7589V44.6057H24.8327C18.2467 44.6057 11.9304 41.9894 7.27333 37.3323C2.61629 32.6753 0 26.359 0 19.773L0 3.58365C0 2.63321 0.377562 1.72169 1.04963 1.04963C1.72169 0.377562 2.63321 0 3.58365 0Z" fill="white"/>
<path d="M35.2332 9.98853H56.5323V44.5222H52.5238C49.8703 44.5222 47.2427 43.9996 44.7912 42.9841C42.3397 41.9686 40.1122 40.4801 38.2359 38.6037C36.3596 36.7273 34.8713 34.4997 33.856 32.0481C32.8406 29.5965 32.3181 26.969 32.3183 24.3154V12.9035C32.3186 12.1305 32.6259 11.3892 33.1724 10.8427C33.719 10.2961 34.4602 9.98887 35.2332 9.98853Z" fill="white"/>
<path d="M60.5832 25.5964H72.2968V44.5928H70.0942C67.1469 44.5928 64.3203 43.422 62.2362 41.3379C60.1521 39.2538 58.9813 36.4272 58.9813 33.4799V27.2034C58.9813 26.7778 59.1504 26.3698 59.4512 26.0689C59.7521 25.768 60.1602 25.5989 60.5858 25.5989L60.5832 25.5964Z" fill="white"/>
</svg>
